<svg width="78" height="78" viewBox="0 0 78 78" fill="none" xmlns="http://www.w3.org/2000/svg">
<path d="M30.2575 21.8075C29.9562 22.1082 29.7172 22.4653 29.5541 22.8585C29.391 23.2516 29.3071 23.6731 29.3071 24.0988C29.3071 24.5244 29.391 24.9459 29.5541 25.339C29.7172 25.7322 29.9562 26.0893 30.2575 26.39L42.8675 39L30.2575 51.61C29.6498 52.2177 29.3084 53.0419 29.3084 53.9012C29.3084 54.7606 29.6498 55.5848 30.2575 56.1925C30.8652 56.8002 31.6894 57.1416 32.5488 57.1416C33.4081 57.1416 34.2323 56.8002 34.84 56.1925L49.7575 41.275C50.0588 40.9743 50.2978 40.6172 50.4609 40.224C50.624 39.8309 50.708 39.4094 50.708 38.9838C50.708 38.5581 50.624 38.1366 50.4609 37.7435C50.2978 37.3503 50.0588 36.9932 49.7575 36.6925L34.84 21.775C33.605 20.54 31.525 20.54 30.2575 21.8075Z" fill="#4DBCE9"/>
</svg>
